<svg width="161" height="160" viewBox="0 0 161 160" fill="none" xmlns="http://www.w3.org/2000/svg">
<path fill-rule="evenodd" clip-rule="evenodd" d="M0.584473 1.23011C0.584473 0.550738 1.13521 0 1.81458 0H159.354C160.034 0 160.584 0.550738 160.584 1.23011V158.77C160.584 159.449 160.034 160 159.354 160H1.81458C1.13521 160 0.584473 159.449 0.584473 158.77V1.23011ZM3.04469 2.46021V157.54H158.124V2.46021H3.04469Z" fill="white"/>
<path fill-rule="evenodd" clip-rule="evenodd" d="M14.2734 14.9211C14.2734 14.2418 14.8242 13.691 15.5035 13.691H145.649C146.328 13.691 146.879 14.2418 146.879 14.9211V145.066C146.879 145.746 146.328 146.297 145.649 146.297H15.5035C14.8242 146.297 14.2734 145.746 14.2734 145.066V14.9211ZM16.7337 16.1513V143.836H144.419V16.1513H16.7337Z" fill="white"/>
<path d="M15.5085 120.488H1.81738V158.769H15.5085V120.488Z" fill="#131517"/>
<path d="M40.0986 158.76V145.069H1.81771V158.76H40.0986Z" fill="#131517"/>
<path d="M145.661 39.5121H159.352V1.23116H145.661V39.5121Z" fill="#131517"/>
<path d="M121.071 1.23079V14.9219L159.352 14.9219V1.23079L121.071 1.23079Z" fill="#131517"/>
</svg>
