<svg width="101" height="51" viewBox="0 0 101 51" fill="none" xmlns="http://www.w3.org/2000/svg">
<path fill-rule="evenodd" clip-rule="evenodd" d="M65.9814 25.2391C65.9814 29.3831 64.3352 33.3574 61.405 36.2876C58.4747 39.2179 54.5005 40.8641 50.3564 40.8641C46.2124 40.8641 42.2382 39.2179 39.3079 36.2876C36.3776 33.3574 34.7314 29.3831 34.7314 25.2391C34.7314 21.0951 36.3776 17.1208 39.3079 14.1906C42.2382 11.2603 46.2124 9.6141 50.3564 9.6141C54.5005 9.6141 58.4747 11.2603 61.405 14.1906C64.3352 17.1208 65.9814 21.0951 65.9814 25.2391ZM74.9189 29.9266C73.821 35.6361 70.7684 40.7849 66.2858 44.4876C61.8031 48.1904 56.1706 50.2159 50.3564 50.2159C44.5423 50.2159 38.9098 48.1904 34.4271 44.4876C29.9445 40.7849 26.8919 35.6361 25.7939 29.9266H5.04395C3.80074 29.9266 2.60846 29.4327 1.72938 28.5537C0.850305 27.6746 0.356445 26.4823 0.356445 25.2391C0.356445 23.9959 0.850305 22.8036 1.72938 21.9245C2.60846 21.0455 3.80074 20.5516 5.04395 20.5516H25.7939C26.8852 14.8365 29.9351 9.68089 34.4185 5.97256C38.902 2.26423 44.5381 0.235352 50.3564 0.235352C56.1747 0.235352 61.8109 2.26423 66.2943 5.97256C70.7777 9.68089 73.8277 14.8365 74.9189 20.5516H95.6689C96.9121 20.5516 98.1044 21.0455 98.9835 21.9245C99.8626 22.8036 100.356 23.9959 100.356 25.2391C100.356 26.4823 99.8626 27.6746 98.9835 28.5537C98.1044 29.4327 96.9121 29.9266 95.6689 29.9266H74.9189Z" fill="#00D1FF"/>
</svg>
